<svg width="32" height="32" viewBox="0 0 32 32" fill="none" xmlns="http://www.w3.org/2000/svg">
<g filter="url(#filter0_dd_2_17)">
<path fill-rule="evenodd" clip-rule="evenodd" d="M23.8649 17.2C23.7357 17.0799 23.6376 16.9553 23.6044 16.84C23.4739 16.383 23.646 15.0548 23.9048 14.6401C24.1628 14.2239 23.877 12.975 23.7926 12.7683C23.7058 12.5604 23.6767 12.2906 23.3805 12.3724C23.0826 12.4558 22.4132 12.4247 21.8078 12.3002C21.2008 12.1768 20.6723 11.5921 20.5514 10.9328C20.416 10.1937 20.416 9.47567 20.5888 9.02547C20.782 8.5194 21.2577 8.32783 21.6932 8.08917C21.8938 7.97981 22.8644 7.82496 22.8279 7.358C22.6023 6.92776 20.5418 7.41707 20.4592 6.74856C20.3756 6.07886 20.3461 5.74281 20.6075 5.20401C20.8817 4.64207 20.5664 4.7171 20.4907 4.03583C20.4804 3.93884 20.6952 3.6882 20.7122 3.6C21.4231 4.0043 22.0908 4.48762 22.6899 5.06313C24.5667 6.8667 25.6 9.26454 25.6 11.8152C25.6 13.7669 24.9905 15.6255 23.8649 17.2ZM19.4437 16.8971C19.034 17.5476 19.1325 18.0268 18.1978 18.5241C17.6772 18.8014 17.3068 18.88 17.0314 19.6248C16.7548 20.368 16.2962 20.3418 15.1513 20.9456C14.0047 21.5509 13.5493 20.9456 13.4559 20.4813C13.3629 20.017 13.6455 18.9203 13.6455 18.9203C13.6455 18.9203 13.7575 18.5927 12.9452 18.2227C10.891 17.2872 12.6634 14.0029 12.6634 14.0029C12.1993 13.4596 11.0205 12.394 9.37484 12.045C7.80148 11.7121 7.3528 10.7887 6.8 9.867C7.20457 8.16055 8.05464 6.59235 9.30967 5.31877C11.1048 3.49786 13.4909 2.4 16.0315 2.4C16.0315 2.4 16.8883 2.4 17.6971 2.6124C16.9575 3.42653 16.1301 4.24952 15.5153 4.47643C14.4085 4.88752 13.8954 5.56099 13.8907 6.27839C13.8883 6.64999 14.6577 7.32345 14.6577 8.17547C14.6577 9.62356 13.595 9.65702 13.471 9.04682C13.1912 7.66281 12.121 8.0203 10.8393 8.15894C9.55567 8.29879 8.77793 9.81017 9.60216 10.4147C10.428 11.0193 10.3855 10.2237 10.703 9.99677C11.0189 9.76946 11.2423 9.67959 11.4823 9.99677C11.7204 10.314 12.2366 10.4865 12.1869 11.1374C12.1436 11.7879 12.0045 12.3448 12.8769 12.3448C13.748 12.3448 13.7782 12.5391 14.331 12.8176C14.8782 13.0965 15.3965 13.0441 15.8531 13.1376C16.3117 13.2299 16.9126 14.1279 16.9126 14.1279C18.2125 14.5539 18.6401 14.728 18.999 15.0907C19.3567 15.4534 19.8582 16.2462 19.4437 16.8971ZM15.9986 0H15.9954H15.9922C11.2315 0 7.13019 2.7812 5.19038 6.8C4.43014 8.3748 4 10.1344 4 12C3.9992 18.6264 9.3653 24 15.9938 24H15.997H16.0002C22.6263 24 28.0008 18.6264 28 12.0016C28.0008 5.314 22.5467 0 15.9986 0Z" fill="white"/>
</g>
<defs>
<filter id="filter0_dd_2_17" x="0" y="0" width="32" height="32" filterUnits="userSpaceOnUse" color-interpolation-filters="sRGB">
<feFlood flood-opacity="0" result="BackgroundImageFix"/>
<feColorMatrix in="SourceAlpha" type="matrix" values="0 0 0 0 0 0 0 0 0 0 0 0 0 0 0 0 0 0 127 0" result="hardAlpha"/>
<feOffset dy="4"/>
<feGaussianBlur stdDeviation="2"/>
<feComposite in2="hardAlpha" operator="out"/>
<feColorMatrix type="matrix" values="0 0 0 0 0 0 0 0 0 0 0 0 0 0 0 0 0 0 0.25 0"/>
<feBlend mode="normal" in2="BackgroundImageFix" result="effect1_dropShadow_2_17"/>
<feColorMatrix in="SourceAlpha" type="matrix" values="0 0 0 0 0 0 0 0 0 0 0 0 0 0 0 0 0 0 127 0" result="hardAlpha"/>
<feOffset dy="4"/>
<feGaussianBlur stdDeviation="2"/>
<feComposite in2="hardAlpha" operator="out"/>
<feColorMatrix type="matrix" values="0 0 0 0 0 0 0 0 0 0 0 0 0 0 0 0 0 0 0.25 0"/>
<feBlend mode="normal" in2="effect1_dropShadow_2_17" result="effect2_dropShadow_2_17"/>
<feBlend mode="normal" in="SourceGraphic" in2="effect2_dropShadow_2_17" result="shape"/>
</filter>
</defs>
</svg>
